<svg viewBox="0 0 24 24" aria-hidden="true">
<!--!-->
  <path d="m22.904 13.22-1.802-4.88c-.756-1.964 1.828-2.31 1.828-2.31.574-.318 0-.664 0-.664-.6.144-1.044-.693-1.044-.693l-.34-.78c-.182-.462-.234-.52-.025-1.414.208-.896-.457-.853-.575-.723-.117.13-.483.332-.757.029s-.966-.288-.966-.288l-.26-.578h-.288l-.287.577h-5.065v.174h-10.6v-.29h-.209a.814.814 0 0 0-.182-.404c-.862 0-1.044.722-1.044.722h-.68c-.39.78.027 1.646.027 1.646h.757v2.34h1.593l.13.375h3.969c3.707 0 3.054 3.436 3.054 3.436 2.793 1.415 4.543.52 4.543.52 1.383-.317 1.644.982 1.644.982l.94 4.13c.078.72-.033 1.153-.033 1.153l.002.06h-.002v.582s-.021.316.373.267l4.38-.408a.6.6 0 0 0 .523.332c.337 0 .61-.302.61-.673a.463.463 0 0 0-.034-.18l.133-.001c.314-1.936-.313-3.04-.313-3.04zm-1.71-11.38c.11 0 .199.098.199.22s-.09.22-.2.22c-.11 0-.2-.098-.2-.22s.09-.22.2-.22zm-5.521 6.817c-.08.52-.575.81-.575.81-1.694.629-2.782.452-3.642.166-1.049-.349-.979-1.467-.979-1.467 0-1.53 1.436-1.501 1.436-1.501h1.175c.653 1.732-.94 2.513-.94 2.513-.21.057 0 .23 0 .23.966-.028 1.749-1.761 1.749-1.761l-.026-.722.365-.26c1.436 0 1.515 1.473 1.436 1.992zm7.23 7.782c0 .241-.177.438-.395.438-.218 0-.395-.196-.395-.437 0-.062.012-.12.032-.173l.724-.006a.483.483 0 0 1 .035.178"/>
</svg>
